<svg xmlns="http://www.w3.org/2000/svg" xmlns:xlink="http://www.w3.org/1999/xlink" width="53px" height="48px" viewBox="0 0 53 48"><title>icon</title><desc>Created with Sketch.</desc><defs></defs><g id="Web-design" stroke="none" stroke-width="1" fill="none" fill-rule="evenodd"><g id="SC-Copy-46" transform="translate(-188.000000, -6789.000000)" fill="#FFFFFF"><g id="6.-Who-we-work" transform="translate(0.000000, 5990.000000)"><g id="Group-5" transform="translate(0.000000, 252.000000)"><g id="Text" transform="translate(185.000000, 222.000000)"><g id="Group-8"><g id="Group-14" transform="translate(3.000000, 316.000000)"><g id="icon" transform="translate(0.000000, 9.237879)"><path d="M47.8933511,38.848121 C50.6697481,36.2505006 52.2920812,32.6381358 52.2920812,28.779545 C52.2920812,21.1391087 46.0427769,14.922727 38.3618761,14.922727 C36.3269947,14.922727 34.3071149,15.391727 32.4726141,16.2444543 C30.9863684,15.5494816 29.3608206,15.1071293 27.6463338,14.9770884 L27.6463338,12.6949771 C30.682047,12.1854725 33.004105,9.55907256 33.004105,6.39545444 C33.004105,2.86836131 30.1205525,0 26.5747796,0 C23.0290066,0 20.1454542,2.86836131 20.1454542,6.39545444 C20.1454542,9.55907256 22.4675122,12.1854725 25.5032253,12.6949771 L25.5032253,14.9770884 C23.7887386,15.1081952 22.1642623,15.5494816 20.6780166,16.2444543 C18.8295856,15.380002 16.8547111,14.922727 14.787683,14.922727 C7.10678225,14.922727 0.857477957,21.1391087 0.857477957,28.779545 C0.857477957,32.6381358 2.47981107,36.2505017 5.25513653,38.8470562 C3.79139345,39.5910607 3.02416062,41.1131788 3.02416062,42.635297 C3.02416062,44.7543242 4.48897526,46.8999992 7.28680336,46.8999992 L45.8627558,46.8999992 C48.6605839,46.8999992 50.124327,44.7553901 50.124327,42.6374288 C50.124327,41.1153128 49.3570941,39.5921277 47.8933511,38.848121 L47.8933511,38.848121 Z M26.5747796,2.13181815 C28.5667989,2.13181815 30.2298511,3.49511585 30.7088358,5.32954536 L22.4407233,5.32954536 C22.9197081,3.49511585 24.5827603,2.13181815 26.5747796,2.13181815 L26.5747796,2.13181815 Z M22.4407233,7.46136351 L30.7088358,7.46136351 C30.2298511,9.29579302 28.5667989,10.6590907 26.5747796,10.6590907 C24.5827603,10.6590907 22.9197081,9.29579302 22.4407233,7.46136351 L22.4407233,7.46136351 Z M3.00058643,28.779545 C3.00058643,22.3148064 8.28870657,17.0545452 14.787683,17.0545452 C16.0178273,17.0545452 17.2072525,17.2570679 18.3527439,17.619477 C14.8991246,20.1435497 12.6445745,24.2003996 12.6445745,28.779545 C12.6445745,30.3560245 12.9092484,31.9026585 13.4310953,33.3768108 C13.6271898,33.9321494 14.2369041,34.2242085 14.797327,34.0280812 C15.3545352,33.8330199 15.6492126,33.2243858 15.4520466,32.6690472 C15.0116378,31.4240654 14.787683,30.1140631 14.787683,28.779545 C14.787683,22.3148064 20.0758031,17.0545452 26.5747796,17.0545452 C33.073756,17.0545452 38.3618761,22.3148064 38.3618761,28.779545 C38.3618761,30.1417768 38.1282773,31.4762949 37.6685806,32.7447267 C37.4681999,33.2989994 37.756448,33.9086994 38.3136562,34.1090903 C38.4325987,34.1517267 38.556899,34.1730449 38.6769131,34.1730449 C39.1151788,34.1730449 39.5277272,33.902304 39.6841741,33.4674131 C40.2285236,31.9666131 40.5049846,30.3890677 40.5049846,28.779545 C40.5049846,24.2003996 38.2504345,20.1446156 34.7978868,17.619477 C35.9423067,17.2570679 37.1317319,17.0545452 38.3618761,17.0545452 C44.8608526,17.0545452 50.1489727,22.3148064 50.1489727,28.779545 C50.1489727,32.6093563 48.2801821,36.1726903 45.1340989,38.3727266 L8.01653179,38.3727266 C4.86937701,36.1726903 3.00058643,32.6093563 3.00058643,28.779545 L3.00058643,28.779545 Z M45.8627558,44.7681811 L7.28680336,44.7681811 C5.72233418,44.7681811 5.16726909,43.6191311 5.16726909,42.635297 C5.16726909,41.6525288 5.72233418,40.5045448 7.28680336,40.5045448 L7.36181216,40.5045448 L45.787747,40.5045448 L45.8627558,40.5045448 C47.427225,40.5045448 47.9812185,41.6535947 47.9812185,42.6374288 C47.9812185,43.620197 47.427225,44.7681811 45.8627558,44.7681811 L45.8627558,44.7681811 Z" id="Page-1"></path></g></g></g></g></g></g></g></g></svg>