<svg xmlns="http://www.w3.org/2000/svg" xmlns:xlink="http://www.w3.org/1999/xlink" width="52px" height="52px" viewBox="0 0 52 52"><title>icon</title><desc>Created with Sketch.</desc><defs></defs><g id="Web-design" stroke="none" stroke-width="1" fill="none" fill-rule="evenodd"><g id="SC-Copy-46" transform="translate(-185.000000, -6633.000000)" fill="#FFFFFF"><g id="6.-Who-we-work" transform="translate(0.000000, 5990.000000)"><g id="Group-5" transform="translate(0.000000, 252.000000)"><g id="Text" transform="translate(185.000000, 222.000000)"><g id="Group-8"><g id="Group-13" transform="translate(0.000000, 169.000000)"><g id="icon"><g id="Page-1" transform="translate(0.427451, 0.000000)"><path d="M50.3176462,21.4117643 L44.2035169,21.4117643 C43.7763522,19.7191644 43.2314228,17.8424232 42.5387522,16.4185409 L46.8896227,12.0665998 C47.0908933,11.8653292 47.2033051,11.5933998 47.2033051,11.3096939 C47.2033051,11.025988 47.0908933,10.7540586 46.8896227,10.5527881 L40.8322346,4.4975411 C40.4136346,4.07894111 39.7370229,4.07894111 39.3184229,4.4975411 L34.9664818,8.8494822 C33.5425994,8.15574104 31.6658583,7.60974105 29.9764701,7.18364694 L29.9764701,1.07058822 C29.9764701,0.479623521 29.4979171,0 28.9058819,0 L22.4823526,0 C21.8903173,0 21.4117643,0.479623521 21.4117643,1.07058822 L21.4117643,7.18364694 C19.720235,7.61081164 17.8424232,8.15681163 16.4196115,8.85055279 L12.0665998,4.49861169 C11.6490704,4.0800117 10.971388,4.0800117 10.5527881,4.49861169 L4.49647051,10.5538586 C4.07787052,10.971388 4.07787052,11.6490704 4.49647051,12.0676704 L8.8494822,16.4206821 C8.15788221,17.840282 7.61081164,19.7191644 7.18150576,21.4117643 L1.07058822,21.4117643 C0.478552933,21.4117643 0,21.8913879 0,22.4823526 L0,28.9058819 C0,29.4968466 0.478552933,29.9764701 1.07058822,29.9764701 L7.18150576,29.9764701 C7.61081164,31.6701406 8.15788221,33.5479524 8.8494822,34.9675523 L4.49647051,39.3216346 C4.29519993,39.5218346 4.18278816,39.7948346 4.18278816,40.0785405 C4.18278816,40.3622464 4.29519993,40.6341758 4.49647051,40.8354464 L10.5538586,46.8906933 C10.9563998,47.2921639 11.6672704,47.2921639 12.0676704,46.8906933 L16.4185409,42.5376816 C17.8392115,43.2292816 19.7180938,43.7763522 21.4117643,44.2056581 L21.4117643,50.3176462 C21.4117643,50.9086109 21.8903173,51.3882344 22.4823526,51.3882344 L28.9058819,51.3882344 C29.4979171,51.3882344 29.9764701,50.9086109 29.9764701,50.3176462 L29.9764701,44.2056581 C31.66907,43.7763522 33.5468818,43.2303522 34.9664818,42.5387522 L39.320564,46.8906933 C39.739164,47.3082227 40.4157758,47.3092933 40.8343758,46.8906933 L46.8896227,40.8354464 C47.3082227,40.4168464 47.3082227,39.7402346 46.8896227,39.3216346 L42.5387522,34.9675523 C43.2292816,33.5479524 43.7763522,31.6701406 44.2056581,29.9764701 L50.3176462,29.9764701 C50.9096815,29.9764701 51.3882344,29.4968466 51.3882344,28.9058819 L51.3882344,22.4823526 C51.3882344,21.8913879 50.9096815,21.4117643 50.3176462,21.4117643 L50.3176462,21.4117643 Z M49.247058,27.8352936 L43.3673875,27.8352936 C42.8727757,27.8352936 42.4423993,28.1735995 42.3278463,28.6521525 C42.0377169,29.8469289 41.2690346,33.0201524 40.3044346,34.6003406 C40.0474934,35.0232229 40.1127993,35.5660112 40.4618111,35.9160935 L44.6210463,40.0774699 L40.0796111,44.6189051 L35.9171641,40.4596699 C35.5649406,40.1095876 35.0210818,40.0453523 34.6014112,40.303364 C33.0201524,41.2690346 29.8479995,42.0366463 28.6542936,42.3267757 C28.1735995,42.4434699 27.8352936,42.8738474 27.8352936,43.3673864 L27.8352936,49.247058 L23.5529408,49.247058 L23.5529408,43.3673875 C23.5529408,42.8727757 23.2146349,42.4434699 22.7350114,42.3267757 C21.5391643,42.0377169 18.3670115,41.2690346 16.7846821,40.3022934 C16.3639409,40.0453523 15.8179409,40.1074464 15.4689291,40.4585993 L11.3096939,44.6199757 L6.76611753,40.0785405 L10.9285645,35.9182347 C11.2786469,35.5681523 11.3418116,35.0242935 11.0848704,34.6024818 C10.1181292,33.0222936 9.35051749,29.8490701 9.06038808,28.6542936 C8.94369397,28.1735995 8.51438809,27.8352936 8.01977633,27.8352936 L2.14117643,27.8352936 L2.14117643,23.5529408 L8.01977633,23.5529408 C8.51438809,23.5529408 8.94369397,23.2146349 9.0582469,22.7339408 C9.34837631,21.5391643 10.1170587,18.3659409 11.0827292,16.7857527 C11.340741,16.3628703 11.2765057,15.8200821 10.9264233,15.4699997 L6.76611753,11.3086233 L11.3086233,6.76718812 L15.4699997,10.9264233 C15.8211527,11.2765057 16.3650115,11.340741 16.7857527,11.0837998 C18.373435,10.1138469 21.5413055,9.35158808 22.7328702,9.06359985 C23.2146349,8.94797632 23.5529408,8.51759985 23.5529408,8.0229881 L23.5529408,2.14117643 L27.8352936,2.14117643 L27.8352936,8.0229881 C27.8352936,8.51759985 28.1735995,8.94797632 28.6542936,9.06467043 C30.5235407,9.51538807 33.1743171,10.2144822 34.6014112,11.0848704 C35.0210818,11.3418116 35.5660112,11.2775763 35.9160935,10.9274939 L40.0763993,6.76825871 L44.6199757,11.3096939 L40.4607405,15.4689291 C40.1106581,15.8179409 40.0464228,16.3617997 40.303364,16.7836115 C41.2743875,18.373435 42.0366463,21.5402349 42.323564,22.7328702 C42.4402581,23.2146349 42.8706346,23.5529408 43.3652463,23.5529408 L49.247058,23.5529408 L49.247058,27.8352936 L49.247058,27.8352936 Z" id="Fill-1"></path><path d="M25.6941172,14.988235 C19.7908938,14.988235 14.988235,19.7908938 14.988235,25.6941172 C14.988235,31.5973406 19.7908938,36.3999994 25.6941172,36.3999994 C31.5973406,36.3999994 36.3999994,31.5973406 36.3999994,25.6941172 C36.3999994,19.7908938 31.5973406,14.988235 25.6941172,14.988235 L25.6941172,14.988235 Z M25.6941172,34.2588229 C20.9717526,34.2588229 17.1294115,30.4164818 17.1294115,25.6941172 C17.1294115,20.9717526 20.9717526,17.1294115 25.6941172,17.1294115 C30.4164818,17.1294115 34.2588229,20.9717526 34.2588229,25.6941172 C34.2588229,30.4164818 30.4164818,34.2588229 25.6941172,34.2588229 L25.6941172,34.2588229 Z" id="Fill-3"></path></g></g></g></g></g></g></g></g></g></svg>