<svg xmlns="http://www.w3.org/2000/svg" xmlns:xlink="http://www.w3.org/1999/xlink" width="53px" height="52px" viewBox="0 0 53 52"><title>Goal</title><desc>Created with Sketch.</desc><defs><polygon id="path-1" points="52.2028768 0.000862050532 52.2028768 51.8742415 0 51.8742415 0 0.000862050532 52.2028768 0.000862050532"></polygon></defs><g id="Web-design" stroke="none" stroke-width="1" fill="none" fill-rule="evenodd"><g id="SC-Copy-46" transform="translate(-603.000000, -6785.000000)"><g id="6.-Who-we-work" transform="translate(0.000000, 5990.000000)"><g id="Group-5" transform="translate(0.000000, 252.000000)"><g id="Text" transform="translate(185.000000, 222.000000)"><g id="Group-9" transform="translate(412.000000, 0.000000)"><g id="Group-21" transform="translate(6.000000, 316.000000)"><g id="Goal" transform="translate(0.000000, 4.974242)"><g id="Group-24"><g id="Page-1" transform="translate(0.151079, 0.000000)"><mask id="mask-2" fill="white"><use xlink:href="#path-1"></use></mask><g id="Clip-2"></g><path d="M51.9918902,5.84449788 C51.7863414,5.56675455 51.4611609,5.40356683 51.1153169,5.40356683 L46.7650771,5.40356683 L46.7650771,1.08071337 C46.7650771,0.737046515 46.6008556,0.413913219 46.3224402,0.210739106 C46.0429373,0.00648428019 45.682955,-0.0518742415 45.3534243,0.0497128148 C44.9325387,0.180479132 35.0237801,3.31779003 33.6219153,8.98180878 C33.1151124,11.024357 33.7404594,13.0787931 35.4707672,15.0986464 L32.6061344,17.9452454 C29.1411684,14.8619702 24.5821172,12.9685604 19.5760788,12.9685604 C8.78204646,12.9685604 5.30370561e-14,21.6953208 5.30370561e-14,32.421401 C5.30370561e-14,37.3959246 1.905405,41.926275 5.00821349,45.3694278 L0.318655278,50.0294638 C-0.106580634,50.4520228 -0.106580634,51.1350333 0.318655278,51.5575923 C0.530729248,51.7683321 0.809144591,51.8742415 1.08755993,51.8742415 C1.36597528,51.8742415 1.64439062,51.7683316 1.85646481,51.5575925 L6.54602324,46.8975565 C10.0109892,49.9808328 14.5700404,51.8742415 19.5760788,51.8742415 C24.5821172,51.8742415 29.1411684,49.9808317 32.6061344,46.8975565 L37.2956928,51.5575923 C37.507767,51.7683321 37.7861823,51.8742415 38.0645977,51.8742415 C38.343013,51.8742415 38.6214284,51.7683316 38.8335025,51.5575925 C39.2587385,51.1350336 39.2587385,50.4520228 38.8335025,50.0294638 L34.1439441,45.3694278 C37.2467526,41.9262729 39.1521576,37.3959246 39.1521576,32.421401 C39.1521576,27.4468773 37.2467526,22.9165269 34.1439441,19.4733741 L37.0096645,16.6256944 C38.5822762,17.9538911 40.1864271,18.6325791 41.7873153,18.6325791 C48.3572649,18.6325791 52.0005907,7.29049236 52.1528491,6.8084942 C52.2572548,6.47887663 52.1963514,6.1211605 51.9918902,5.84449788 L51.9918902,5.84449788 Z M44.5899573,6.03686486 L41.3272775,9.27900496 L41.3272775,4.10238794 C42.480091,3.48638132 43.631817,2.98168818 44.5899573,2.61100349 L44.5899573,6.03686486 L44.5899573,6.03686486 Z M35.7328692,9.49947048 C36.11134,7.96809964 37.4881909,6.58370582 39.1521576,5.42518109 L39.1521576,11.4404317 L37.0161899,13.5629527 C35.8361874,12.1418147 35.4098639,10.8049722 35.7328692,9.49947048 L35.7328692,9.49947048 Z M36.9770377,32.421401 C36.9770377,37.1549255 35.0498815,41.447519 31.9383726,44.572942 C31.9133587,44.5934756 31.8818195,44.6021213 31.8578931,44.625897 C31.8339668,44.6496727 31.8252663,44.6799327 31.8046027,44.7058698 C28.6593794,47.7977918 24.3395913,49.7128148 19.5760788,49.7128148 C14.8125663,49.7128148 10.4927782,47.7977907 7.34755491,44.7047891 C7.32689127,44.6799327 7.31819079,44.648592 7.29426447,44.625897 C7.27033816,44.603202 7.23988648,44.5934756 7.2148726,44.572942 C4.10227607,41.4475201 2.17511987,37.1549255 2.17511987,32.421401 C2.17511987,22.8873477 9.98162507,15.1299871 19.5760788,15.1299871 C23.9828717,15.1299871 28.000318,16.7791557 31.0694122,19.4722934 L27.9948802,22.5274701 C25.7197049,20.6135267 22.783293,19.4528406 19.5760788,19.4528406 C12.3796947,19.4528406 6.5253596,25.2703206 6.5253596,32.421401 C6.5253596,39.5724813 12.3796947,45.3899613 19.5760788,45.3899613 C26.7724629,45.3899613 32.626798,39.5724813 32.626798,32.421401 C32.626798,29.2343772 31.4587586,26.3164512 29.53269,24.0555988 L32.6072219,21.0004221 C35.3174213,24.0512759 36.9770377,28.0423504 36.9770377,32.421401 L36.9770377,32.421401 Z M23.9263185,32.421401 C23.9263185,34.8054546 21.975236,36.7442544 19.5760788,36.7442544 C17.1769216,36.7442544 15.2258391,34.8054546 15.2258391,32.421401 C15.2258391,30.0373473 17.1769216,28.0985475 19.5760788,28.0985475 C20.3808732,28.0985475 21.1247641,28.3309009 21.7718623,28.711312 L20.1318219,30.3410277 C19.9534621,30.2934763 19.7696645,30.2599742 19.5760788,30.2599742 C18.3743251,30.2599742 17.4009589,31.2272127 17.4009589,32.421401 C17.4009589,33.6155892 18.3743251,34.5828277 19.5760788,34.5828277 C20.7778325,34.5828277 21.7511987,33.6155892 21.7511987,32.421401 C21.7511987,32.229034 21.7174843,32.0463934 21.6707192,31.8680757 L23.3107596,30.23836 C23.6924932,30.8824651 23.9263185,31.6216731 23.9263185,32.421401 L23.9263185,32.421401 Z M23.3509993,27.1421162 C22.284103,26.3866975 20.9833814,25.9371208 19.5760788,25.9371208 C15.977343,25.9371208 13.0507192,28.8453204 13.0507192,32.421401 C13.0507192,35.9974815 15.977343,38.9056812 19.5760788,38.9056812 C23.1748146,38.9056812 26.1014384,35.9974815 26.1014384,32.421401 C26.1014384,31.0229579 25.6490135,29.7304247 24.8888091,28.6702449 L27.9916176,25.5869696 C29.5272522,27.4501195 30.4516781,29.8298503 30.4516781,32.421401 C30.4516781,38.3804545 25.5728843,43.2285346 19.5760788,43.2285346 C13.5792733,43.2285346 8.70047947,38.3804545 8.70047947,32.421401 C8.70047947,26.4623475 13.5792733,21.6142673 19.5760788,21.6142673 C22.1840475,21.6142673 24.5788545,22.5328737 26.4538078,24.0588409 L23.3509993,27.1421162 L23.3509993,27.1421162 Z M41.7884029,16.4700717 C40.7573961,16.4700717 39.6730988,16.0010421 38.5550872,15.0900007 L46.127767,7.56499356 L49.5785947,7.56499356 C48.2669974,10.9260121 45.3545119,16.4700717 41.7884029,16.4700717 L41.7884029,16.4700717 Z" id="Fill-1" fill="#FFFFFF" mask="url(#mask-2)"></path></g></g></g></g></g></g></g></g></g></g></svg>