<svg xmlns="http://www.w3.org/2000/svg" xmlns:xlink="http://www.w3.org/1999/xlink" width="52px" height="52px" viewBox="0 0 52 52"><title>icon</title><desc>Created with Sketch.</desc><defs><polygon id="path-1" points="0 0 51.4536577 0 51.4536577 51.1636355 0 51.1636355"></polygon></defs><g id="Web-design" stroke="none" stroke-width="1" fill="none" fill-rule="evenodd"><g id="SC-Copy-46" transform="translate(-605.000000, -6635.000000)"><g id="6.-Who-we-work" transform="translate(0.000000, 5990.000000)"><g id="Group-5" transform="translate(0.000000, 252.000000)"><g id="Text" transform="translate(185.000000, 222.000000)"><g id="Group-9" transform="translate(412.000000, 0.000000)"><g id="Group-11" transform="translate(8.000000, 164.000000)"><g id="icon" transform="translate(0.000000, 7.106060)"><g id="Page-1" transform="translate(0.290244, 0.000000)"><mask id="mask-2" fill="white"><use xlink:href="#path-1"></use></mask><g id="Clip-2"></g><path d="M21.7531057,16.7422338 C21.8517252,16.8402974 21.9707118,16.9181088 22.1014899,16.9724702 C22.2322679,17.0257656 22.3716216,17.0545452 22.5109752,17.0545452 C22.6503289,17.0545452 22.7896825,17.0257656 22.9204606,16.9724702 C23.0512386,16.9181088 23.1702252,16.8402974 23.2688447,16.7422338 L29.7005519,10.3467794 C30.1196849,9.93000892 30.1196849,9.25635439 29.7005519,8.83958394 C29.281419,8.42281349 28.6039459,8.42281349 28.1848129,8.83958394 L23.5829264,13.4155316 L23.5829264,1.06590907 C23.5829264,0.477527265 23.1026923,0 22.5109752,0 C21.9192582,0 21.439024,0.477527265 21.439024,1.06590907 L21.439024,13.4155316 L16.8371375,8.83958394 C16.4180046,8.42281349 15.7405314,8.42281349 15.3213985,8.83958394 C14.9022656,9.25635439 14.9022656,9.93000892 15.3213985,10.3467794 L21.7531057,16.7422338 L21.7531057,16.7422338 Z" id="Fill-1" fill="#FFFFFF" mask="url(#mask-2)"></path><path d="M50.3817065,6.39545444 L42.8780481,6.39545444 C42.3806627,6.39545444 41.9486664,6.73547943 41.8339676,7.21727033 L39.0018725,19.1863633 L1.0719512,19.1863633 C0.727854866,19.1863633 0.404125603,19.3505133 0.202598777,19.6287156 C0.00107196942,19.9069178 -0.0546694898,20.2639974 0.054669522,20.5890996 L6.48637672,39.775463 C6.63216208,40.2114198 7.04164744,40.5045448 7.50365841,40.5045448 L33.9583421,40.5045448 L33.4534531,42.6363629 L10.719512,42.6363629 C8.35478766,42.6363629 6.43170721,44.5486038 6.43170721,46.8999992 C6.43170721,49.2513946 8.35478766,51.1636355 10.719512,51.1636355 C13.0842364,51.1636355 15.0073168,49.2513946 15.0073168,46.8999992 C15.0073168,46.1197538 14.7800632,45.3981333 14.4113119,44.7681811 L30.6106385,44.7681811 C30.2418873,45.3981333 30.0146336,46.1197559 30.0146336,46.8999992 C30.0146336,49.2513946 31.9377141,51.1636355 34.3024384,51.1636355 C36.6671628,51.1636355 38.5902432,49.2513946 38.5902432,46.8999992 C38.5902432,45.0026811 37.3296286,43.4102129 35.6037872,42.8591379 L43.7270334,8.52727258 L50.3817065,8.52727258 C50.9734235,8.52727258 51.4536577,8.04974532 51.4536577,7.46136351 C51.4536577,6.8729817 50.9734235,6.39545444 50.3817065,6.39545444 L50.3817065,6.39545444 Z M8.27546327,38.3727266 L2.55874752,21.3181815 L38.4969835,21.3181815 L34.4621592,38.3727266 L8.27546327,38.3727266 L8.27546327,38.3727266 Z M12.8634144,46.8999992 C12.8634144,48.0756969 11.9018742,49.0318173 10.719512,49.0318173 C9.53714984,49.0318173 8.57560961,48.0756969 8.57560961,46.8999992 C8.57560961,45.7243015 9.53714984,44.7681811 10.719512,44.7681811 C11.9018742,44.7681811 12.8634144,45.7243004 12.8634144,46.8999992 L12.8634144,46.8999992 Z M36.4463408,46.8999992 C36.4463408,48.0756969 35.4848006,49.0318173 34.3024384,49.0318173 C33.1200763,49.0318173 32.158536,48.0756969 32.158536,46.8999992 C32.158536,45.7243015 33.1200763,44.7681811 34.3024384,44.7681811 C35.4848006,44.7681811 36.4463408,45.7243004 36.4463408,46.8999992 L36.4463408,46.8999992 Z" id="Fill-3" fill="#FFFFFF" mask="url(#mask-2)"></path></g></g></g></g></g></g></g></g></g></svg>