<svg xmlns="http://www.w3.org/2000/svg" xmlns:xlink="http://www.w3.org/1999/xlink" width="52px" height="49px" viewBox="0 0 52 49"><title>icon</title><desc>Created with Sketch.</desc><defs></defs><g id="Web-design" stroke="none" stroke-width="1" fill="none" fill-rule="evenodd"><g id="SC-Copy-46" transform="translate(-597.000000, -6478.000000)" fill="#FFFFFF"><g id="6.-Who-we-work" transform="translate(0.000000, 5990.000000)"><g id="Group-5" transform="translate(0.000000, 252.000000)"><g id="Text" transform="translate(185.000000, 222.000000)"><g id="Group-9" transform="translate(412.000000, 0.000000)"><g id="Group-12"><g id="icon" transform="translate(0.000000, 13.369697)"><g id="Page-1" transform="translate(0.000000, 0.842424)"><path d="M25.6754713,0.539049957 C11.5186583,0.539049957 0,10.0604762 0,21.7638736 C0,27.2907463 2.51940562,32.4697064 7.11424516,36.4352671 L1.95775468,46.7663432 C1.75449054,47.1754628 1.83044714,47.6683393 2.14711128,47.9958498 C2.35358487,48.2084623 2.6317358,48.3212113 2.9152358,48.3212113 C3.06821882,48.3212113 3.22120183,48.2889972 3.36562636,48.2213475 L17.1383771,41.7881835 C19.8738846,42.5849466 22.7431185,42.9876234 25.6754713,42.9876234 C39.8322842,42.9876234 51.3509425,33.4661971 51.3509425,21.7638736 C51.3509425,10.0604762 39.8322842,0.539049957 25.6754713,0.539049957 L25.6754713,0.539049957 Z M25.6754713,40.8400151 C22.8126562,40.8400151 20.0183091,40.4276741 17.3673167,39.6158777 C17.115911,39.5396376 16.8431091,39.5578923 16.6034714,39.6695679 L5.24528482,44.9752348 L9.40792059,36.6349948 C9.63472059,36.1818492 9.51490172,35.6309874 9.12014135,35.3152888 C4.61837539,31.7008622 2.13962261,26.8880696 2.13962261,21.7638736 C2.13962261,11.2448828 12.6975903,2.68665935 25.6754713,2.68665935 C38.6533522,2.68665935 49.2113199,11.2448828 49.2113199,21.7638736 C49.2113199,32.2828644 38.6533522,40.8400151 25.6754713,40.8400151 L25.6754713,40.8400151 Z" id="Fill-1"></path><path d="M32.6859447,11.2770969 C30.6522334,11.2770969 28.2558561,12.3326469 26.7452826,15.1084321 C25.234709,12.3326469 22.8383317,11.2770969 20.8046204,11.2770969 C17.4143884,11.2770969 13.9075469,14.1183841 13.9075469,18.8731913 C13.9075469,25.7047368 25.6177015,34.3316837 26.1162335,34.6957035 C26.3034505,34.8320767 26.5238316,34.9008002 26.7452826,34.9008002 C26.9656637,34.9008002 27.1871146,34.8320767 27.3743316,34.6946297 C27.8728637,34.3306099 39.5830182,25.7047368 39.5830182,18.8731913 C39.5830182,14.1183841 36.0761767,11.2770969 32.6859447,11.2770969 L32.6859447,11.2770969 Z M26.7452826,32.4868873 C23.2576977,29.8088183 16.0471695,23.3488093 16.0471695,18.8731913 C16.0471695,15.4627876 18.4660129,13.4247063 20.8046204,13.4247063 C23.1282505,13.4247063 24.9597675,15.2813146 25.705426,18.391053 C25.8209656,18.8731913 26.2510297,19.2135874 26.7452826,19.2135874 C27.2395354,19.2135874 27.6695995,18.8731913 27.7851391,18.391053 C28.5297278,15.2813146 30.3623146,13.4247063 32.6859447,13.4247063 C35.0245522,13.4247063 37.4433956,15.4627876 37.4433956,18.8731913 C37.4433956,23.3488093 30.2328674,29.8098922 26.7452826,32.4868873 L26.7452826,32.4868873 Z" id="Fill-3"></path></g></g></g></g></g></g></g></g></g></svg>