<svg xmlns="http://www.w3.org/2000/svg" xmlns:xlink="http://www.w3.org/1999/xlink" width="52px" height="48px" viewBox="0 0 52 48"><title>Group 20</title><desc>Created with Sketch.</desc><defs></defs><g id="Web-design" stroke="none" stroke-width="1" fill="none" fill-rule="evenodd"><g id="SC-Copy-46" transform="translate(-187.000000, -6479.000000)" fill="#FFFFFF"><g id="6.-Who-we-work" transform="translate(0.000000, 5990.000000)"><g id="Group-5" transform="translate(0.000000, 252.000000)"><g id="Text" transform="translate(185.000000, 222.000000)"><g id="Group-8"><g id="Group-10" transform="translate(2.000000, 0.000000)"><g id="Group-20" transform="translate(0.000000, 15.138000)"><g id="Page-1" transform="translate(0.000000, 0.570000)"><path d="M47.1239983,0 L4.28399985,0 C1.92137393,0 0,1.92137393 0,4.28399985 L0,36.4139987 C0,38.7766246 1.92137393,40.6979985 4.28399985,40.6979985 L18.8624513,40.6979985 L17.4348084,44.9819984 L10.7099996,44.9819984 C10.1177366,44.9819984 9.63899966,45.4618064 9.63899966,46.0529984 C9.63899966,46.6441903 10.1177366,47.1239983 10.7099996,47.1239983 L18.2069993,47.1239983 L33.2009988,47.1239983 L33.2213478,47.1239983 L40.6979985,47.1239983 C41.2902615,47.1239983 41.7689985,46.6441903 41.7689985,46.0529984 C41.7689985,45.4618064 41.2902615,44.9819984 40.6979985,44.9819984 L33.9731898,44.9819984 L32.5444758,40.6979985 L47.1239983,40.6979985 C49.4866242,40.6979985 51.4079982,38.7766246 51.4079982,36.4139987 L51.4079982,4.28399985 C51.4079982,1.92137393 49.4866242,0 47.1239983,0 L47.1239983,0 Z M31.7155219,44.9819984 L19.6935473,44.9819984 L21.1211902,40.6979985 L30.2878789,40.6979985 L31.7155219,44.9819984 L31.7155219,44.9819984 Z M49.2659982,36.4139987 C49.2659982,37.5953117 48.3042403,38.5559986 47.1239983,38.5559986 L31.0589989,38.5559986 L20.3489993,38.5559986 L4.28399985,38.5559986 C3.10268689,38.5559986 2.14199992,37.5953117 2.14199992,36.4139987 L2.14199992,4.28399985 C2.14199992,3.10268689 3.10268689,2.14199992 4.28399985,2.14199992 L47.1239983,2.14199992 C48.3042403,2.14199992 49.2659982,3.10268689 49.2659982,4.28399985 L49.2659982,36.4139987 L49.2659982,36.4139987 Z" id="Fill-1"></path><path d="M4.28399985,32.1299989 L47.1239983,32.1299989 L47.1239983,4.28399985 L4.28399985,4.28399985 L4.28399985,32.1299989 L4.28399985,32.1299989 Z M6.42599977,6.42599977 L44.9819984,6.42599977 L44.9819984,29.9879989 L6.42599977,29.9879989 L6.42599977,6.42599977 L6.42599977,6.42599977 Z" id="Fill-3"></path><path d="M25.7039991,33.2009988 C24.5226861,33.2009988 23.5619992,34.1616858 23.5619992,35.3429987 C23.5619992,36.5243117 24.5226861,37.4849987 25.7039991,37.4849987 C26.884241,37.4849987 27.845999,36.5243117 27.845999,35.3429987 C27.845999,34.1616858 26.884241,33.2009988 25.7039991,33.2009988 L25.7039991,33.2009988 Z M25.7039991,36.4139987 L25.7029281,35.3440697 C25.7029281,35.3440697 25.7039991,35.3429987 25.7050701,35.3429987 L25.7039991,36.4139987 L25.7039991,36.4139987 Z" id="Fill-4"></path></g></g></g></g></g></g></g></g></g></svg>