<?xml version="1.0" encoding="utf-8"?>
<!-- Generator: Adobe Illustrator 16.0.0, SVG Export Plug-In . SVG Version: 6.00 Build 0)  -->
<!DOCTYPE svg PUBLIC "-//W3C//DTD SVG 1.1//EN" "http://www.w3.org/Graphics/SVG/1.1/DTD/svg11.dtd">
<svg version="1.1" id="Layer_1" xmlns="http://www.w3.org/2000/svg" xmlns:xlink="http://www.w3.org/1999/xlink" x="0px" y="0px"
	 width="200px" height="200px" viewBox="0 0 200 200" enable-background="new 0 0 200 200" xml:space="preserve">
<path fill="#3D4078" d="M200,189.404c0,5.852-4.743,10.596-10.596,10.596H10.596C4.743,200,0,195.256,0,189.404V10.596
	C0,4.745,4.743,0,10.596,0h178.809C195.257,0,200,4.745,200,10.596V189.404z"/>
<g>
	<path fill="#FFFFFF" d="M115.686,44.516c-4.561,4.443-7.4,10.644-7.4,17.51v40.686c0,5.987-4.857,10.846-10.845,10.846H70.167
		c-5.987,0-10.846-4.858-10.846-10.846c0-5.986,4.858-10.844,10.846-10.844h29.911V70.164H70.167c-1.854,0-3.659,0.153-5.429,0.45
		c-15.385,2.578-27.12,15.978-27.12,32.097c0,14.173,9.063,26.229,21.703,30.696c1.745,0.617,3.551,1.093,5.417,1.401
		c1.77,0.297,3.575,0.451,5.429,0.451H97.44c1.853,0,3.66-0.154,5.427-0.451c1.867-0.309,3.672-0.784,5.418-1.401
		c12.641-4.468,21.705-16.523,21.705-30.696V91.867c11.984,0,21.701-9.718,21.701-21.703H129.99v-8.138
		c0-1.497,1.209-2.708,2.707-2.708h5.428c6.617,0,12.617-2.625,17.012-6.903c3.955-3.848,6.617-9.016,7.246-14.8h-29.686
		C126.094,37.615,120.082,40.24,115.686,44.516"/>
	<path fill="#FFFFFF" d="M70.167,140.686c-5.992,0-10.85,4.857-10.85,10.85c0,5.991,4.857,10.85,10.85,10.85
		c5.991,0,10.849-4.858,10.849-10.85C81.016,145.543,76.159,140.686,70.167,140.686"/>
	<path fill="#FFFFFF" d="M102.715,140.686c-5.992,0-10.849,4.857-10.849,10.85c0,5.991,4.857,10.85,10.849,10.85
		c5.992,0,10.85-4.858,10.85-10.85C113.564,145.543,108.707,140.686,102.715,140.686"/>
</g>
</svg>
